<?xml version="1.0" standalone="no"?>
<!DOCTYPE svg PUBLIC "-//W3C//DTD SVG 1.1//EN" "http://www.w3.org/Graphics/SVG/1.1/DTD/svg11.dtd" >
<svg xmlns="http://www.w3.org/2000/svg">
<metadata></metadata>
<defs>
<font id="android-dev-icons-2devicons2" horiz-adv-x="2048" >
<font-face units-per-em="2048" ascent="1920" descent="-128" />
<missing-glyph horiz-adv-x="500" />
<glyph horiz-adv-x="0" />
<glyph unicode="&#xd;" horiz-adv-x="680" />
<glyph unicode="!" d="M292 278q20 -34 72 -34h1320q52 0 72 34t-8 82l-660 1140q-24 48 -64 48t-64 -48l-660 -1140q-28 -48 -8 -82zM932 428v176h184v-176h-184zM932 716v416h184v-416h-184z" />
<glyph unicode="#" d="M228 1240l156 -192q280 228 640 228t640 -228l156 192q-344 284 -796 284t-796 -284zM420 1004l160 -192q192 160 444 160t444 -160l160 192q-264 216 -604 216t-604 -216zM616 764l164 -200q108 92 244 92t244 -92l164 200q-180 148 -408 148t-408 -148zM820 520 l204 -252l204 252q-88 76 -204 76t-204 -76z" />
<glyph unicode="$" d="M244 244v420h268v-420h-268zM672 244v716h272v-716h-272zM1104 244v1008h272v-1008h-272zM1536 244v1304h268v-1304h-268z" />
<glyph unicode="%" d="M308 336h1432v68v864v68h-488v52v12v16v12v28h-452v-4v-4v-4v-4v-4v-4v-4v-40v-52h-92l-88 -16l-312 -104v-76v-736v-68zM368 1292v104v20h228v-20v-28zM636 832q0 160 114 272t274 112t272 -112t112 -272t-112 -274t-272 -114t-274 114t-114 274zM760 830q0 110 78 188 t186 78t186 -78t78 -188t-78 -186t-186 -76t-186 76t-78 186z" />
<glyph unicode="&#x26;" d="M496 444l68 -68l216 216q56 -32 132 -52v-72q24 -12 76 -16v-76q-304 -16 -304 -76v-28q0 -32 100 -54t242 -22t244 22t102 54v28q0 60 -308 76v76l76 16v72q268 72 268 308v76h40q16 12 16 36q4 8 -2 18t-10 14l-4 4h-96v-148q0 -128 -92 -198t-236 -70q-120 0 -204 52 l76 76q60 -28 132 -28q92 0 160 44t68 108v236l296 296l-68 68l-228 -228v244q0 60 -68 104t-162 44t-162 -44t-68 -104v-616q0 -36 24 -64l-72 -72q-48 64 -48 152v148h-96q-8 -20 -8 -40l8 -32h40v-76q0 -116 64 -192z" />
<glyph unicode="(" d="M308 308h1432v128h-1432v-128zM668 1008l348 476l352 -476h-220v-444h-260v444h-220z" />
<glyph unicode=")" d="M308 308h1432v128h-1432v-128zM668 1040h220v444h260v-444h220l-352 -476z" />
<glyph unicode="*" d="M364 256l216 256l164 164q-116 120 -166 230t-10 150l44 44q68 68 280 -88l280 280q-120 160 -80 200l60 56q28 28 124 -30t204 -166t166 -204t30 -124l-56 -60q-40 -40 -200 80l-280 -280q156 -212 88 -280l-44 -44q-40 -40 -150 10t-230 166l-164 -164l-256 -216z" />
<glyph unicode="0" d="M364 628l392 -392h536l392 392v536l-392 392h-536l-392 -392v-536zM940 552v144h172v-144h-172zM940 780v520h172v-520h-172z" />
<glyph unicode="1" d="M284 268h1028v804h-1028v-804zM528 628v8v72v8h8h216v220v8h8h72h8v-8v-220h216h8v-8v-72v-8h-8h-216v-220v-8h-8h-72h-8v8v220h-216h-8zM624 1184h800v-576h112v688h-912v-112zM1072 1412h580v-524h112v636h-692v-112z" />
<glyph unicode="2" d="M344 484l648 372v-372l712 412l-712 412v-372l-648 372v-824z" />
<glyph unicode="3" d="M344 896l712 -412v372l648 -372v824l-648 -372v372z" />
<glyph unicode="4" d="M320 484l644 376v-376l648 376v-376h116v824h-116v-372l-648 372v-372l-644 372v-824z" />
<glyph unicode="5" d="M320 484h116v376l648 -376v376l644 -376v824l-644 -372v372l-648 -372v372h-116v-824z" />
<glyph unicode="6" d="M328 782q-4 -142 44 -274q40 -100 108 -188q16 -20 36 -40q92 -100 216 -156q128 -60 270 -64t270 44q104 40 188 108q20 16 40 36q100 92 156 216q60 128 66 270t-46 274q-48 120 -140 224q-96 100 -220 160q-100 44 -224 60v280l-564 -376l564 -380v276q80 -12 140 -40 q88 -40 152 -112q72 -76 104 -164q36 -92 32 -194t-44 -190q-44 -88 -112 -156l-32 -24q-60 -48 -132 -76q-96 -36 -196 -32q-100 0 -192 44q-88 40 -156 112q-8 12 -24 28q-48 60 -76 132q-36 96 -32 198t44 190l-176 84q-60 -128 -64 -270z" />
<glyph unicode="7" d="M232 896q0 -328 232 -560t560 -232t560 232t232 560t-232 560t-560 232t-560 -232t-232 -560zM316 896q0 292 208 500t500 208t500 -208t208 -500t-208 -500t-500 -208t-500 208t-208 500zM692 564v664h268v-664h-268zM1092 564v664h264v-664h-264z" />
<glyph unicode="8" d="M232 896q0 -328 232 -560t560 -232t560 232t232 560t-232 560t-560 232t-560 -232t-232 -560zM316 896q0 292 208 500t500 208t500 -208t208 -500t-208 -500t-500 -208t-500 208t-208 500zM772 512l660 380l-660 380v-760z" />
<glyph unicode="9" d="M300 668l312 -216l176 -280l60 60l-40 304l328 312l244 -676l124 128l-132 752l272 268q168 176 76 272q-92 92 -264 -80l-268 -268l-760 148l-124 -128l680 -252l-308 -344l-320 60z" />
<glyph unicode="@" d="M660 276h728v1112h-192v128h-344v-128h-192v-1112zM748 1024v276h192v128h168v-128h192v-276h-552z" />
<glyph unicode="A" d="M456 484l168 164l-168 168l100 100l164 -168l168 168l100 -100l-168 -168l168 -164l-100 -100l-168 168l-164 -168zM1048 868h184l-96 -440h60l396 608h-204l136 372h-376z" />
<glyph unicode="B" d="M736 848h196l-104 -464h68l416 640h-216l140 384h-392z" />
<glyph unicode="C" d="M328 736l220 -68l-84 -216l228 32l20 -232l196 128l116 -200l116 200l196 -128l20 232l228 -32l-84 216l220 68l-168 160l168 160l-220 68l84 216l-228 -32l-20 232l-196 -128l-116 200l-116 -200l-196 128l-20 -232l-228 32l84 -216l-220 -68l168 -160zM740 608l220 620 h128l220 -620h-128l-44 132h-224l-44 -132h-128zM944 836h160l-80 228z" />
<glyph unicode="D" d="M328 736l220 -68l-84 -216l228 32l20 -232l196 128l116 -200l116 200l196 -128l20 232l228 -32l-84 216l220 68l-168 160l168 160l-220 68l84 216l-228 -32l-20 232l-196 -128l-116 200l-116 -200l-196 128l-20 -232l-228 32l84 -216l-220 -68l168 -160zM592 896 q0 180 126 306t306 126t306 -126t126 -306t-126 -306t-306 -126t-306 126t-126 306zM672 896q0 -144 104 -248t248 -104t248 104t104 248t-104 248t-248 104t-248 -104t-104 -248z" />
<glyph unicode="E" d="M328 736l220 -68l-84 -216l228 28l20 -228l196 128l116 -200l116 200l196 -128l20 228l228 -28l-84 216l220 68l-168 160l168 160l-220 68l84 216l-228 -32l-20 232l-196 -128l-116 200l-116 -200l-196 128l-20 -232l-228 32l84 -216l-220 -68l168 -160zM1004 464v868 q180 0 308 -128t128 -308t-128 -306t-308 -126z" />
<glyph unicode="F" d="M328 736l220 -68l-84 -216l228 28l20 -228l196 128l116 -200l116 200l196 -128l20 228l228 -28l-84 216l220 68l-168 160l168 160l-220 68l84 216l-228 -32l-20 232l-196 -128l-116 200l-116 -200l-196 128l-20 -232l-228 32l84 -216l-220 -68l168 -160zM572 896 q0 180 126 308t306 128l24 -4h8h12q164 -16 278 -140t114 -292q0 -180 -128 -306t-308 -126t-306 126t-126 306z" />
<glyph unicode="G" d="M300 896q0 -116 24 -198t56 -82h96h64q304 -468 352 -468h124q60 0 100 218t40 530q0 316 -38 532t-102 216h-124q-48 0 -336 -468h-176q-32 0 -56 -82t-24 -198zM888 692q88 56 88 204t-88 204q12 188 44 314t64 126q36 0 60 -188t24 -456t-24 -456t-60 -188 q-32 0 -64 126t-44 314zM1244 784l72 -28q26 68 26 131t-26 121l-72 -32q18 -42 18 -90t-18 -102zM1408 640l80 -28q64 156 64 284q0 140 -60 288l-84 -44q56 -140 56 -248q0 -112 -56 -252zM1564 428l80 -48q104 244 104 512t-104 512l-80 -44q96 -224 96 -468t-96 -464z " />
<glyph unicode="H" d="M328 320l72 -88l1320 1196l-72 84zM460 896q0 -116 24 -198t56 -82h12l516 468q-12 8 -20 16q12 188 44 314t64 126q44 0 72 -312l68 60q-40 356 -120 356h-124q-48 0 -336 -468h-176q-32 0 -56 -82t-24 -198zM800 464q216 -316 252 -316h120q60 0 102 218t42 530v36 l-76 -68q-4 -256 -28 -434t-56 -178t-64 126t-44 310z" />
<glyph unicode="I" d="M132 740q0 48 62 94t166 74v-52q-136 -60 -136 -116t138 -120t362 -88v120l276 -196l-276 -168v124q-592 68 -592 328zM564 780h960v68v166v194v130v102h-324v64h-312v-64h-56l-268 -108v-552zM608 1396l148 56v32h-148v-88zM784 1088q0 108 76 184t184 76t186 -76 t78 -184t-78 -184t-186 -76t-184 76t-76 184zM864 1088q0 -76 54 -128t128 -52t128 52t54 128t-54 128t-128 52t-128 -52t-54 -128zM1136 392v136q216 4 378 38t236 82t74 94t-96 98v48q188 -60 188 -148q0 -144 -226 -244t-554 -104z" />
<glyph unicode="J" d="M132 780q0 52 62 98t166 70v-48q-136 -60 -136 -120q0 -52 138 -116t362 -92v120l276 -192l-276 -168v120q-592 72 -592 328zM460 904v444q0 48 34 80t78 32h740l-4 -660h-736q-48 0 -80 30t-32 74zM1136 436v136q216 0 378 36t236 82t74 94t-96 100v48q188 -60 188 -148 q0 -144 -226 -246t-554 -102zM1376 992v280l220 124h56v-528h-52z" />
<glyph unicode="K" d="M588 956l12 -32h36v-76q0 -240 268 -308v-72q24 -12 76 -16v-76q-304 -16 -304 -76v-28q0 -32 100 -54t244 -22t244 22t100 54v28q0 60 -304 76v76l76 16v72q268 72 268 308v76h40q16 12 16 36q0 8 -4 18t-8 14l-4 4h-100v-148q0 -128 -92 -198t-234 -70t-234 70t-92 198 v148h-92q-12 -20 -12 -40zM792 832q0 -64 66 -108t162 -44t162 44t66 108v616q0 60 -66 104t-162 44t-162 -44t-66 -104v-616z" />
<glyph unicode="L" d="M272 936l4 -84h176q16 -212 168 -362t364 -166v-180l84 4v176q212 16 362 168t166 364h180l-4 84h-176q-16 212 -168 362t-364 166v180l-84 -4v-176q-212 -16 -362 -168t-166 -364h-180zM534 894v6q0 198 142 340q144 144 346 146h6q198 0 340 -142q144 -144 146 -346v-6 q0 -198 -142 -340q-144 -144 -346 -144t-346 142t-146 344zM784 720l64 -64l176 176l172 -172l4 -4l64 64l-180 176l172 172l8 4l-64 64l-176 -180l-172 172l-4 8l-64 -64l180 -176l-172 -172z" />
<glyph unicode="M" d="M272 936l4 -84h176q16 -212 168 -362t364 -166v-180l84 4v176q212 16 362 168t166 364h180l-4 84h-176q-16 212 -168 362t-364 166v180l-84 -4v-176q-212 -16 -362 -168t-166 -364h-180zM536 894q0 202 142 346t344 146h6q198 0 340 -142q144 -144 146 -346v-6 q0 -198 -142 -340q-144 -144 -346 -144t-346 142t-144 344zM728 896q0 -124 86 -210t210 -86t210 86t86 210t-86 210t-210 86t-210 -86t-86 -210z" />
<glyph unicode="N" d="M272 936l4 -84h176q16 -212 168 -362t364 -166v-180l84 4v176q212 16 362 168t166 364h180l-4 84h-176q-16 212 -168 362t-364 166v180l-84 -4v-176q-212 -16 -362 -168t-166 -364h-180zM536 894q0 202 142 346t344 146h6q198 0 340 -142q144 -144 146 -346v-6 q0 -198 -142 -340q-144 -144 -346 -144t-346 142t-144 344z" />
<glyph unicode="O" d="M492 180h1064v708h-176v376q0 140 -96 244t-260 104t-260 -104t-96 -244v-228h152v228q0 80 52 140t152 60t152 -60t52 -140v-376h-736v-708z" />
<glyph unicode="P" d="M492 252h1064v708h-176v232q0 140 -96 244t-260 104t-260 -104t-96 -244v-232h-176v-708zM820 960v232q0 80 52 140t152 60t152 -60t52 -140v-232h-408z" />
<glyph unicode="Q" d="M344 572h148l52 48v100h100v100h100l188 188q76 -40 160 -40q144 0 246 104t102 248t-102 246t-246 102t-246 -102t-102 -246q0 -84 40 -160l-440 -440v-148zM1052 412h280v-288h88v288h284v88h-284v288h-88v-288h-280v-88zM1092 1418q0 42 30 72t70 30t70 -30t30 -72 t-30 -70t-70 -28t-70 28t-30 70z" />
<glyph unicode="R" d="M240 1182q0 -206 146 -354t354 -148q120 0 228 56l272 -268h140v-144h144v-140l72 -72h212v212l-624 628q56 108 56 228q0 208 -148 354t-354 146t-352 -146t-146 -352zM452 1324q0 60 42 102t102 42t102 -42t42 -102t-42 -102t-102 -42t-102 42t-42 102z" />
<glyph unicode="S" d="M444 544h296v288h-296v-288zM448 956h292v288h-292v-288zM448 1380h292v284h-292v-284zM868 128h304v288h-304v-288zM868 544h304v288h-304v-288zM868 960h304v284h-304v-284zM872 1380h300v284h-300v-284zM1304 544h296v288h-296v-288zM1304 960h300v284h-300v-284z M1304 1376h296v288h-296v-288z" />
<glyph unicode="T" d="M348 1240q16 -108 126 -298t258 -338t338 -258t298 -126q13 -2 25 -2q70 0 135 58q76 68 164 192q11 17 11 32q0 18 -15 36q-4 0 -8 4l-292 208q-15 11 -30 11l-34 -15q-4 -4 -4 -8q-4 0 -4 -4q-12 -12 -20 -28t-16 -24q-32 -52 -72 -152q-140 20 -336 216t-216 336 q100 40 152 72q8 8 24 18t32 18v4q4 4 8 4q15 15 15 32q0 15 -11 32l-208 292q-4 4 -4 8q-17 15 -36 15q-16 0 -32 -11q-124 -88 -192 -164q-58 -65 -58 -135q0 -12 2 -25zM1064 1432q172 -64 302 -194t194 -302l68 20q-72 184 -216 328t-328 216zM1100 1232 q104 -44 164 -104t104 -164l56 28q-48 116 -116 184q-76 76 -184 124z" />
<glyph unicode="U" d="M196 608q8 -48 52 -48q4 0 12 4l376 60q44 8 44 52v8v8q-4 20 -8 38t-8 30q-12 60 -56 168q120 92 416 92t416 -92q-44 -108 -56 -168q-4 -12 -8 -30t-8 -38v-8v-8q0 -44 44 -52l376 -60q8 -4 12 -4q44 4 52 48q22 116 22 203q0 169 -82 229q-92 72 -318 132t-450 60 t-450 -60t-318 -132q-82 -61 -82 -229q0 -87 22 -203z" />
<glyph unicode="V" d="M300 1260q16 -112 136 -314t278 -360t360 -278t314 -136q13 -2 26 -2q78 0 148 62q82 72 174 208q13 17 13 33q0 18 -17 35l-8 8l-308 224l-4 -4q-17 13 -33 13q-18 0 -35 -17l-4 -4q0 -4 -4 -4q-12 -20 -22 -36t-14 -24q-36 -56 -80 -164q-152 24 -360 232t-232 360 q108 44 164 80q8 8 26 16t34 20l4 4l4 4q17 17 17 35q0 16 -13 33v4l-220 308l-8 8q-17 17 -35 17q-16 0 -33 -13q-136 -92 -208 -174q-62 -70 -62 -148q0 -13 2 -26z" />
<glyph unicode="W" d="M368 380l244 244l-120 120l452 68l-72 -452l-120 120l-240 -244zM368 1412l140 144l244 -244l120 120l72 -452l-452 68l116 120zM1104 812l452 -68l-116 -120l240 -244l-140 -144l-244 244l-120 -120zM1104 980l72 452l120 -120l240 244l144 -144l-244 -244l120 -120z " />
<glyph unicode="X" d="M368 240l68 448l120 -116l244 240l140 -140l-244 -244l120 -120zM368 1552l448 -68l-116 -120l240 -244l-140 -140l-244 244l-120 -120zM1108 672l140 140l244 -244l120 120l68 -448l-448 68l116 120zM1108 1120l244 244l-120 120l448 68l-68 -448l-120 116l-244 -244z " />
<glyph unicode="Y" d="M204 544l400 -324v240h764q176 0 304 126t128 306q0 72 -24 140l-128 -108v-32q0 -116 -82 -200t-198 -84h-764v256zM248 900q0 -72 24 -140l128 108v32q0 116 82 200t198 84h764v-256l400 320l-400 324v-240h-764q-176 0 -304 -126t-128 -306z" />
<glyph unicode="Z" d="M180 436h28q28 -4 40 -4q212 0 408 96q208 104 396 316q164 192 340 276q36 20 76 32v-224l400 320l-400 324v-256q-104 -24 -196 -72q-212 -104 -400 -316q-164 -192 -336 -276q-144 -68 -292 -72q-16 0 -36 4h-28v-148zM180 1208h32h32q148 0 292 -68q124 -60 244 -176 q12 8 24 24q48 52 100 104q-120 108 -248 172q-196 96 -408 96q-16 0 -40 -4h-28v-148zM1040 700q112 -92 228 -152q96 -48 200 -72v-256l400 324l-400 320v-224q-40 12 -76 32q-116 56 -228 160q-24 -24 -44 -48q-40 -44 -80 -84z" />
<glyph unicode="^" d="M372 648q0 -52 36 -88t88 -36h800v744h-800q-52 0 -88 -36t-36 -88v-496zM1360 744l252 -152h64v612h-64l-252 -148v-312z" />
<glyph unicode="a" d="M324 1088q0 -180 128 -308t308 -128q148 0 262 86t154 222h-84q-40 -100 -130 -162t-202 -62q-144 0 -248 104t-104 248q0 140 98 242t238 110h16h20q104 -4 188 -66t124 -158h88q-40 132 -148 216t-248 92h-16h-8h-20q-176 -8 -296 -134t-120 -302zM748 1044h704 l-148 -152l52 -68l264 264l-264 264l-52 -68l148 -152h-704v-88z" />
<glyph unicode="b" d="M320 1044h492l-128 -132l52 -44l228 220l-228 220l-52 -48l128 -128h-492v-88zM484 960q44 -168 182 -276t316 -108t316 108t178 276h-76q-44 -136 -158 -222t-260 -86t-262 86t-156 222h-80zM484 1216h80q40 132 148 216t248 92h10h10h12h12q140 -8 248 -92t148 -216h76 q-40 160 -170 268t-298 116h-16h-12h-24q-168 -8 -298 -116t-174 -268zM1000 1088l224 220l52 -48l-124 -128h492v-88h-492l124 -132l-52 -44z" />
<glyph unicode="c" d="M384 1044h704l-148 -152l52 -68l264 264l-264 264l-52 -68l148 -152h-704v-88zM572 960q40 -168 178 -276t318 -108q212 0 362 150t150 362q0 204 -142 352t-346 160h-16h-10h-10h-16q-168 -8 -298 -116t-170 -268h76q40 132 148 216t248 92h24h10h10q176 -8 296 -134 t120 -302q0 -180 -128 -308t-308 -128q-148 0 -262 86t-158 222h-76z" />
<glyph unicode="d" d="M256 188q0 -40 24 -50t80 -10h16h1296h16q36 0 54 2t34 16t16 42v156q0 32 -48 96l-116 164q-48 60 -92 60h-284v-4q0 -52 -60 -100t-120 -48h-96q-60 0 -128 48t-68 100v4h-268q-44 0 -92 -60l-116 -164q-48 -64 -48 -96v-156zM816 1564l60 -864q0 -40 30 -70t70 -30h96 q40 0 70 30t30 70v4l60 860q0 40 -28 70t-72 30h-216q-44 0 -72 -30t-28 -70zM1288 430q0 38 174 38t174 -38t-174 -38t-174 38z" />
<glyph unicode="e" d="M488 646q0 -42 6 -116t14 -110t26 -90t46 -82t68 -62t92 -50t124 -28t160 -12t160 12t124 28t92 50t68 62t46 82t26 90t12 110t6 116t2 130q0 148 -4 184h-1060q-8 -96 -8 -184v-130zM500 1084h460v612q-104 -4 -184 -40t-128 -88t-80 -136t-46 -162t-22 -186zM1088 1084 h464q-16 132 -44 230t-80 188t-138 140t-202 54v-612z" />
<glyph unicode="f" d="M192 612q0 -132 36 -202t136 -70v544q-12 0 -24 -4v208q0 300 192 488t494 188t492 -188t190 -488v-204h-24v-544h4h4v-352h-392v36h-336v-120h112h656q20 0 32 12t12 32v416q80 48 80 248q0 116 -24 176v300q0 348 -228 574t-578 226t-578 -226t-228 -574v-296 q-28 -60 -28 -180zM424 268q0 -12 68 -16q34 -2 68.5 -2t69.5 2q70 4 70 16v696q0 8 -70 12q-35 2 -69.5 2t-68.5 -2q-68 -4 -68 -12v-696zM1348 260q0 -8 70 -12q35 -2 69.5 -2t68.5 2q68 4 68 12v696q0 16 -138 16t-138 -16v-696z" />
<glyph unicode="g" d="M192 440q0 -132 36 -202t136 -70v544h-24v208q0 296 192 486t494 190t492 -190t190 -486v-208h-24v-544q100 0 136 70t36 202q0 120 -24 180v300q0 344 -228 570t-578 226t-578 -226t-228 -570v-300q-28 -60 -28 -180zM424 96q0 -16 138 -16t138 16v696q0 16 -138 16 t-138 -16v-696zM1348 92q0 -16 138 -16t138 16v692q0 12 -68 16q-34 2 -68.5 2t-69.5 -2q-70 -4 -70 -16v-692z" />
<glyph unicode="h" d="M36 680h400v172h-400v-172zM36 960h280v168h-280v-168zM36 1240h172v172h-172v-172zM320 1244h224v168h-224v-168zM432 964h228v164h-228v-164zM436 380h1120v168h-1120v-168zM540 684h224v168h-224v-168zM660 1244h224v168h-224v-168zM772 964h228v164h-228v-164z M884 684h224v168h-224v-168zM992 1244h228v168h-228v-168zM1108 964h228v164h-228v-164zM1220 684h224v168h-224v-168zM1336 1244h224v168h-224v-168zM1448 964h224v164h-224v-164zM1564 684h448v168h-448v-168zM1676 1244h336v168h-336v-168zM1784 964h228v164h-228v-164z " />
<glyph unicode="i" d="M340 616h1368v828h-1368v-828zM432 704v652h1184v-652h-1184zM584 348h864l-104 148h-656z" />
<glyph unicode="j" d="M340 572l20 -84h1328l20 84l-160 36v4v644q0 20 -14 34t-34 14h-956q-20 0 -34 -14t-14 -34v-644v-4zM600 672v528h844v-528h-844z" />
<glyph unicode="k" d="M672 468l4 -88q16 -92 36 -112q24 -28 68 -36q4 0 12 -4q40 -8 108 -12h8h12q56 -4 96 -4t88 4q176 8 216 36q36 28 48 88v4l8 112v944q-4 92 -28 120t-80 36q-56 12 -156 20q-52 4 -92 4q-24 0 -76 -4h-12q-56 0 -120 -8h-8q-8 0 -8 -4q-28 -8 -48 -12q-40 -12 -60 -44 q-12 -20 -12 -64l-4 -4v-972zM728 484v932h588v-932h-588zM988 320q0 36 36 36t36 -36t-36 -36t-36 36z" />
<glyph unicode="l" d="M300 512l648 300l20 -480l-264 -176v-84l320 72l316 -72v80l-236 180l12 472l632 -296v176l-608 428l4 368q0 68 -30 154t-80 86t-78 -84t-28 -152v-372l-628 -424v-176z" />
<glyph unicode="m" d="M356 1288l64 -20q64 172 236 248l-24 64q-200 -88 -276 -292zM452 1100q0 -164 116 -278t280 -114t278 114t114 278t-114 278t-278 114t-280 -114t-116 -278zM516 1100q0 136 98 234t234 98t232 -98t96 -234t-96 -234t-232 -98t-234 98t-98 234zM796 1096l4 -28l204 -176 l32 32l-168 176l-16 268h-40zM1040 1516q164 -76 232 -244l64 24q-80 196 -272 284zM1044 496h280v-284h88v284h280v88h-280v284h-88v-284h-280v-88z" />
<glyph unicode="n" d="M292 1112l92 -32q104 256 352 372l-32 96q-296 -132 -412 -436zM440 832q0 -244 172 -416t414 -172t414 172t172 416t-172 414t-414 170t-414 -170t-172 -414zM532 832q0 204 144 348t350 144t350 -144t144 -348t-144 -350t-350 -146t-350 146t-144 350zM952 828l4 -44 l300 -264l48 48l-248 264l-20 396h-64zM1312 1452q248 -112 348 -364l96 36q-120 292 -408 424z" />
<glyph unicode="o" d="M348 896q0 -280 198 -478t478 -198t478 198t198 478t-198 478t-478 198t-478 -198t-198 -478zM460 896q0 236 164 400t400 164t400 -164t164 -400t-164 -400t-400 -164t-400 164t-164 400zM940 892l4 -48l348 -308l52 56l-284 308l-24 452h-72z" />
<glyph unicode="p" d="M456 516h724v376h-112v108q0 104 -74 176t-176 72t-174 -72t-72 -176v-108h-116v-376zM668 892v108q0 64 44 108t106 44t108 -44t46 -108v-108h-304zM784 232v184h80v-100h644v1160h-644v-136h-80v220h808v-1328h-808z" />
<glyph unicode="q" d="M360 560v820h1328v-820h-200v80h116v656h-1160v-656h136v-80h-220zM672 412h724v400h-112v100q0 104 -74 176t-176 72t-176 -72t-74 -176v-100h-112v-400zM880 812v100q0 64 46 108t108 44t108 -44t46 -108v-100h-308z" />
<glyph unicode="r" d="M296 1064l892 -892l556 556l-892 892zM336 752q0 -232 166 -398t398 -166h4h32l16 16l-208 232l-32 -136q-132 56 -216 180t-84 272h-76zM408 1064l444 444l780 -780l-444 -444zM1136 1564l208 -232l32 136q132 -56 216 -180t84 -272h76q0 232 -166 398t-398 166h-4h-32z " />
<glyph unicode="s" d="M576 296q0 -24 18 -42t42 -18h780q24 0 40 18t16 42v1192q0 28 -18 48t-46 20h-648q-28 0 -46 -20t-18 -48v-384l-120 -116v-100q0 -12 8 -18t16 -6h8q36 0 36 -36v-36q0 -28 -24 -48l-44 -36v-412zM756 1196v240h60v-240h-60zM876 1196v240h60v-240h-60zM996 1196v300 h56v-300h-56zM1112 1196v240h60v-240h-60zM1232 1196v300h60v-300h-60zM1352 1196v240h60v-240h-60z" />
<glyph unicode="t" d="M552 1096q0 -68 60 -104v-184l356 -156v-156q-52 -20 -86 -66t-34 -102q0 -76 52 -128t124 -52t124 52t52 128q0 56 -34 102t-86 66v252l356 184v164h60v236h-236v-236h60v-92l-240 -120v508h128l-184 252l-184 -252h128v-612l-240 104v108q60 36 60 104q0 48 -34 82 t-84 34t-84 -34t-34 -82z" />
<glyph unicode="u" d="M392 632l292 264l-292 264v-528zM608 620l68 -72l284 264v-672l472 460l-296 328l296 264l-472 460v-672l-284 264l-68 -72l300 -276zM1088 400v412l196 -212zM1088 1028v364l196 -200zM1364 896l292 -264v528z" />
<glyph unicode="v" d="M336 624l68 -72l280 260v-660l460 452l-288 324l288 260l-460 452v-660l-280 260l-68 -72l292 -272zM804 408v408l196 -212zM804 1024v360l196 -196zM1372 640l80 -28q64 156 64 284q0 140 -60 288l-84 -40q56 -140 56 -252t-56 -252zM1528 428l80 -48q104 244 104 514 t-104 514l-80 -48q96 -224 96 -466t-96 -466z" />
<glyph unicode="w" d="M612 620l68 -72l284 264v-672l472 460l-296 328l296 264l-472 460v-672l-284 264l-68 -72l300 -276zM1092 400v412l196 -212zM1092 1028v364l196 -200z" />
<glyph unicode="x" d="M384 320h1280v300h-1280v-300zM384 748h1280v296h-1280v-296zM384 1172h1280v300h-1280v-300zM468 404v88h260v-88h-260zM468 832v84h260v-84h-260zM468 1260v84h260v-84h-260z" />
<glyph unicode="y" d="M384 896q0 -264 188 -452t452 -188t452 188t188 452t-188 452t-452 188t-452 -188t-188 -452zM464 848l144 52l-144 44q16 172 124 308l116 -60l-56 120q140 128 328 144l48 -148v-400l304 -336l-12 8l68 -112q-136 -120 -316 -132l-44 128l-44 -128q-192 16 -332 144 l56 120l-116 -60q-108 136 -124 308z" />
<glyph unicode="z" d="M480 618q0 -98 68 -166t166 -68t166 68t68 166t-68 166t-166 68t-166 -68t-68 -166zM580 480l100 300h76l100 -300h-68l-20 64h-104l-20 -64h-64zM680 600h76l-20 68l-1 3l-3 9q-4 12 -4 20l-8 20q0 12 -4 20v-12q-4 -8 -4 -12l-4 -16l-4 -12v-12q-4 0 -4 -4v-4z M1012 872h188l-100 -448h64l404 616h-208l136 368h-384z" />
<glyph unicode="&#x2000;" horiz-adv-x="944" />
<glyph unicode="&#x2001;" horiz-adv-x="1888" />
<glyph unicode="&#x2002;" horiz-adv-x="944" />
<glyph unicode="&#x2003;" horiz-adv-x="1888" />
<glyph unicode="&#x2004;" horiz-adv-x="629" />
<glyph unicode="&#x2005;" horiz-adv-x="472" />
<glyph unicode="&#x2006;" horiz-adv-x="314" />
<glyph unicode="&#x2007;" horiz-adv-x="314" />
<glyph unicode="&#x2008;" horiz-adv-x="236" />
<glyph unicode="&#x2009;" horiz-adv-x="377" />
<glyph unicode="&#x200a;" horiz-adv-x="104" />
<glyph unicode="&#x202f;" horiz-adv-x="377" />
<glyph unicode="&#x205f;" horiz-adv-x="472" />
<glyph unicode="&#xe000;" horiz-adv-x="1480" d="M0 0v1480h1480v-1480h-1480z" />
</font>
</defs>
</svg>
